<?xml version="1.0" encoding="UTF-8" standalone="no"?>
<!DOCTYPE svg PUBLIC "-//W3C//DTD SVG 1.1//EN" "http://www.w3.org/Graphics/SVG/1.1/DTD/svg11.dtd">
<svg height="100%" stroke-miterlimit="10" style="fill-rule:nonzero;clip-rule:evenodd;stroke-linecap:round;stroke-linejoin:round;" version="1.1" viewBox="4.05334 6.9926 120.747 182.874" width="100%" xml:space="preserve" xmlns="http://www.w3.org/2000/svg">
<defs/>
<clipPath id="ArtboardFrame">
<rect height="182.874" width="120.747" x="4.05334" y="6.9926"/>
</clipPath>
<g clip-path="url(#ArtboardFrame)" id="Layer">
<path d="M77.3334 7.73334C76.2667 8.62223 71.8223 19.0222 64.0001 38.9334C56.1778 58.8445 50.7556 68.9778 47.7334 69.3334C44.7111 69.6889 41.6 70.4889 38.4 71.7334C35.2 72.9778 31.1111 70.5778 26.1334 64.5334C23.6445 61.5112 21.1556 58.4889 18.6667 55.4667C22.9334 57.4223 27.2 59.3778 31.4667 61.3334C40 65.2445 44.9778 67.0223 46.4 66.6667C47.8223 66.3112 48.6223 65.3334 48.8 63.7334C48.9778 62.1334 48.2667 60.8 46.6667 59.7334C45.0667 58.6667 39.7334 56.1778 30.6667 52.2667C21.6 48.3556 17.1556 46.1334 17.3333 45.6C17.5111 45.0667 22.5778 42.2223 32.5334 37.0667C42.4889 31.9111 47.8223 28.6222 48.5334 27.2C49.2445 25.7778 49.1556 24.5334 48.2667 23.4667C47.3778 22.4 46.4 21.8667 45.3334 21.8667C44.2667 21.8667 37.3334 25.3334 24.5334 32.2667C11.7333 39.2 5.06667 43.1111 4.53334 44C4 44.8889 3.91111 45.9556 4.26667 47.2C4.62223 48.4445 5.95556 49.6889 8.26667 50.9334C10.5778 52.1778 18.6667 60.8889 32.5334 77.0667C46.4 93.2445 53.3334 110.845 53.3334 129.867C53.3334 148.889 52.0889 158.667 49.6 159.2C47.1112 159.733 44.3556 160.8 41.3334 162.4C38.3111 164 36 165.867 34.4 168C32.8 170.133 32 172.178 32 174.133C32 176.089 32.2667 177.6 32.8 178.667C33.3334 179.733 34.4 180.978 36 182.4C37.6 183.822 39.2889 184.978 41.0667 185.867C42.8445 186.756 45.5111 187.645 49.0667 188.533C52.6223 189.422 57.0667 189.867 62.4001 189.867C67.7334 189.867 72.0001 189.511 75.2001 188.8C78.4001 188.089 81.689 186.845 85.0667 185.067C88.4445 183.289 90.8445 181.422 92.2667 179.467C93.689 177.511 94.4001 175.378 94.4001 173.067C94.4001 170.756 93.6001 168.622 92.0001 166.667C90.4001 164.711 88.6223 163.2 86.6667 162.133C84.7112 161.067 81.9556 160.089 78.4001 159.2C74.8445 158.311 73.0667 148.445 73.0667 129.6C73.0667 110.756 79.6445 94.1334 92.8001 79.7334C105.956 65.3334 113.6 57.0667 115.733 54.9334C117.867 52.8 119.733 51.4667 121.333 50.9334C122.933 50.4 123.911 49.7778 124.267 49.0667C124.622 48.3556 124.8 47.6445 124.8 46.9334C124.8 46.2223 124.445 45.4223 123.733 44.5334C123.022 43.6445 116.533 39.7334 104.267 32.8C92.0001 25.8667 85.1556 22.3111 83.7334 22.1334C82.3112 21.9556 81.2445 22.2222 80.5334 22.9334C79.8223 23.6445 79.4667 24.6222 79.4667 25.8667C79.4667 27.1111 79.7334 28 80.2667 28.5334C80.8001 29.0667 85.689 31.8222 94.9334 36.8C104.178 41.7778 109.245 44.7111 110.133 45.6C110.578 46.0445 111.022 46.4889 111.467 46.9334C106.4 49.0667 101.333 51.2 96.2667 53.3334C86.1334 57.6 80.8001 60 80.2667 60.5334C79.7334 61.0667 79.5556 62.1334 79.7334 63.7334C79.9112 65.3334 80.7112 66.3112 82.1334 66.6667C83.5556 67.0223 88.1779 65.4223 96.0001 61.8667C103.822 58.3112 108 56.6223 108.533 56.8C108.8 56.8889 109.067 56.9778 109.333 57.0667C107.556 59.0223 105.778 60.9778 104 62.9334C100.445 66.8445 96.7112 69.9556 92.8001 72.2667C88.889 74.5778 85.1556 75.8223 81.6001 76.0001C78.0445 76.1778 74.489 75.3778 70.9334 73.6001C67.3778 71.8223 64.8001 70.7556 63.2001 70.4001C61.6001 70.0445 60.7112 69.6889 60.5334 69.3334C60.3556 68.9778 64.1778 59.2 72.0001 40C79.8223 20.8 83.6445 10.7556 83.4667 9.86667C83.289 8.97778 82.489 8.17778 81.0667 7.46667C79.6445 6.75556 78.4001 6.84445 77.3334 7.73334ZM49.0667 72.5334C49.6 72.5334 50.1334 72.5334 50.6667 72.5334C50.2223 73.6001 49.7778 74.6667 49.3334 75.7334C48.4445 77.8667 48 79.4667 48 80.5334C48 81.6001 48.4445 82.489 49.3334 83.2001C50.2223 83.9112 51.3778 84.089 52.8 83.7334C54.2223 83.3778 55.5556 81.5112 56.8 78.1334C58.0445 74.7556 59.2889 73.1556 60.5334 73.3334C61.7778 73.5112 64.7112 74.6667 69.3334 76.8001C73.9556 78.9334 77.6001 80.0001 80.2667 80.0001C82.9334 80.0001 84.9778 79.7334 86.4001 79.2001C87.8223 78.6667 88.6223 78.5778 88.8001 78.9334C88.9779 79.289 86.0445 82.7556 80.0001 89.3334C73.9556 95.9112 70.0445 99.6445 68.2667 100.533C66.4889 101.422 64.7112 101.867 62.9334 101.867C61.1556 101.867 59.1112 100.978 56.8 99.2001C54.4889 97.4223 50.5778 93.3334 45.0667 86.9334C42.3111 83.7334 39.5556 80.5334 36.8 77.3334C37.6 76.8001 38.4 76.2667 39.2 75.7334C40.8 74.6667 42.5778 73.8667 44.5334 73.3334C46.4889 72.8001 48 72.5334 49.0667 72.5334ZM68.8001 104C68.8889 115.111 68.9778 126.222 69.0667 137.333C69.2445 159.556 69.5112 170.845 69.8667 171.2C70.2223 171.556 70.8445 171.645 71.7334 171.467C72.6223 171.289 73.0667 169.6 73.0667 166.4C73.0667 164.8 73.0667 163.2 73.0667 161.6C73.3334 161.6 73.6001 161.6 73.8667 161.6C74.4001 161.6 76.889 162.489 81.3334 164.267C85.7778 166.045 88.4445 167.467 89.3334 168.533C90.2223 169.6 90.7556 170.933 90.9334 172.533C91.1112 174.133 90.489 175.822 89.0667 177.6C87.6445 179.378 85.4223 180.978 82.4001 182.4C79.3778 183.822 75.5556 184.889 70.9334 185.6C66.3112 186.311 61.7778 186.489 57.3334 186.133C52.8889 185.778 49.5112 185.245 47.2 184.533C44.8889 183.822 42.8445 182.933 41.0667 181.867C39.2889 180.8 37.9556 179.645 37.0667 178.4C36.1778 177.156 35.7334 175.733 35.7334 174.133C35.7334 172.533 36.7111 170.756 38.6667 168.8C40.6223 166.845 43.2889 165.245 46.6667 164C50.0445 162.756 52 162.133 52.5334 162.133C52.8 162.133 53.0667 162.133 53.3334 162.133C53.3334 163.556 53.3334 164.978 53.3334 166.4C53.3334 169.245 53.5112 170.845 53.8667 171.2C54.2223 171.556 54.8445 171.645 55.7334 171.467C56.6223 171.289 57.0667 160.089 57.0667 137.867C57.0667 126.756 57.0667 115.645 57.0667 104.533C58.4889 104.711 59.9112 104.889 61.3334 105.067C64.1778 105.422 66.1334 105.333 67.2001 104.8C67.7334 104.533 68.2667 104.267 68.8001 104Z" fill="#ffffff" fill-rule="nonzero" opacity="1" stroke="none"/>
</g>
</svg>
